<svg xmlns="http://www.w3.org/2000/svg" viewBox="0 0 136.83 127.52"><defs><style>.cls-1,.cls-2{fill:none;stroke:#faa533;stroke-miterlimit:10;}.cls-1{stroke-width:7px;}.cls-2{stroke-linecap:round;stroke-width:5px;}.cls-3{fill:#faa533;}</style></defs><g id="Layer_2" data-name="Layer 2"><g id="Layer_1-2" data-name="Layer 1"><circle class="cls-1" cx="57.77" cy="69.74" r="54.27"/><path class="cls-2" d="M37.15,99.35s4,15.27,43-9.52,47-19.62,54.14-8.38"/><path class="cls-3" d="M43,89.93c-7.87-2.69-12.41-11.37-8.64-19.11L64.52,7.7a13.52,13.52,0,0,1,18-6.38C90.42,4,95,12.69,91.19,20.43L61.06,83.55A13.52,13.52,0,0,1,43,89.93Z"/><path class="cls-3" d="M39.34,101.9c23.42-19.38,31.37-15.45-1.2-30.13A3.45,3.45,0,0,0,33.2,75l.58,24.28A3.45,3.45,0,0,0,39.34,101.9Z"/></g></g></svg>